<svg xmlns="http://www.w3.org/2000/svg" width="640" height="540" viewBox="0 0 640 540"><defs><linearGradient id="m" x2="1" y2="1"><stop stop-color="#a9beba"/><stop offset=".48" stop-color="#e4ece7"/><stop offset="1" stop-color="#91aaa7"/></linearGradient></defs><g transform="translate(100 35)"><path d="M0 0H410V465H0Z" fill="#fafbf4" stroke="#6e8475" stroke-width="2"/><path d="M8 38H286V446H8Z" fill="#d8e0d3"/><path d="M24 45H47V430H24Z" fill="#f5f5e9" stroke="#aab8a5"/><path d="M30 45V430M36 45V430M42 45V430" stroke="#c5cebc"/><path d="M47 303H140V330H47Z" fill="#e9ecdb" stroke="#84977f"/><path d="M49 330V445M135 330V445" stroke="#a7b69f" stroke-width="5"/><path d="M231 166H280V446H231Z" fill="#ebeee5" stroke="#a6b5a1"/><path d="M231 166L191 226H281V166" fill="#d6dfd0" stroke="#96a98f"/><rect x="302" y="94" width="86" height="286" rx="2" fill="url(#m)" stroke="#b7c4b0" stroke-width="4"/><path d="M-6 -7H417V10H-6Z" fill="#f7f9ef" stroke="#8ea082"/><path d="M0 465H410" stroke="#8a9d82" stroke-width="6"/><text x="65" y="31" fill="#536b52" font-family="Arial" font-size="15" letter-spacing="4">ФОТО · СЛАВУТИЧ</text></g><text x="185" y="530" fill="#627d5e" font-family="Arial" font-size="17">ВХІД ЗЛІВА</text><text x="405" y="530" fill="#627d5e" font-family="Arial" font-size="17">ДЗЕРКАЛО</text></svg>