0
SECTION
2
HEADER
9
$INSUNITS
70
4
0
ENDSEC
0
SECTION
2
ENTITIES
0
LINE
8
B044
10
237.42
20
111.88
11
834.58
21
111.88
0
LINE
8
B044
10
1072.0
20
0.0
11
0.0
21
0.0
0
LINE
8
B044
10
834.58
20
1337.41
11
834.58
21
111.88
0
LINE
8
B044
10
1072.0
20
2200.0
11
1072.0
21
0.0
0
LINE
8
B044
10
1072.0
20
2200.0
11
0.0
21
2200.0
0
LINE
8
B044
10
0.0
20
2200.0
11
0.0
21
0.0
0
LINE
8
B044
10
237.42
20
111.88
11
237.42
21
1337.41
0
LINE
8
B044
10
834.58
20
1337.41
11
237.42
21
1337.41
0
LINE
8
B045
10
3500.0
20
1200.0
11
3500.0
21
0.0
0
LINE
8
B045
10
5300.0
20
1200.0
11
3500.0
21
1200.0
0
LINE
8
B045
10
5300.0
20
0.0
11
3500.0
21
0.0
0
LINE
8
B045
10
5300.0
20
1200.0
11
5300.0
21
0.0
0
LINE
8
B046
10
7000.0
20
2200.0
11
7000.0
21
0.0
0
LINE
8
B046
10
8072.0
20
2200.0
11
7000.0
21
2200.0
0
LINE
8
B046
10
8072.0
20
0.0
11
7000.0
21
0.0
0
LINE
8
B046
10
8072.0
20
2200.0
11
8072.0
21
0.0
0
LINE
8
B047
10
10500.0
20
2200.0
11
10500.0
21
0.0
0
LINE
8
B047
10
12140.0
20
2200.0
11
10500.0
21
2200.0
0
LINE
8
B047
10
12140.0
20
0.0
11
10500.0
21
0.0
0
LINE
8
B047
10
12140.0
20
2200.0
11
12140.0
21
0.0
0
LINE
8
B048
10
14000.0
20
1072.0
11
14000.0
21
0.0
0
LINE
8
B048
10
14418.0
20
1072.0
11
14000.0
21
1072.0
0
LINE
8
B048
10
14418.0
20
0.0
11
14000.0
21
0.0
0
LINE
8
B048
10
15672.0
20
1072.0
11
15672.0
21
0.0
0
LINE
8
B048
10
15463.0
20
0.0
11
15672.0
21
0.0
0
LINE
8
B048
10
15463.0
20
1072.0
11
15672.0
21
1072.0
0
LINE
8
B048
10
15463.0
20
1072.0
11
15254.0
21
1072.0
0
LINE
8
B048
10
15254.0
20
1072.0
11
14836.0
21
1072.0
0
LINE
8
B048
10
14836.0
20
1072.0
11
14418.0
21
1072.0
0
LINE
8
B048
10
15463.0
20
0.0
11
15254.0
21
0.0
0
LINE
8
B048
10
15254.0
20
0.0
11
14836.0
21
0.0
0
LINE
8
B048
10
14836.0
20
0.0
11
14418.0
21
0.0
0
LINE
8
B049
10
17500.0
20
1219.06
11
17500.0
21
0.0
0
LINE
8
B049
10
18094.01
20
1219.06
11
17500.0
21
1219.06
0
LINE
8
B049
10
18094.01
20
0.0
11
17500.0
21
0.0
0
LINE
8
B049
10
18094.01
20
1219.06
11
18094.01
21
0.0
0
LINE
8
B050
10
21000.0
20
1919.99
11
21000.0
21
0.0
0
LINE
8
B050
10
21419.83
20
2200.0
11
21000.0
21
2200.0
0
LINE
8
B050
10
21419.83
20
0.0
11
21000.0
21
0.0
0
LINE
8
B050
10
22640.0
20
1919.99
11
22640.0
21
0.0
0
LINE
8
B050
10
22004.0
20
0.0
11
22640.0
21
0.0
0
LINE
8
B050
10
21000.0
20
1919.99
11
21000.0
21
2200.0
0
LINE
8
B050
10
22016.11
20
2200.0
11
22640.0
21
2200.0
0
LINE
8
B050
10
22640.0
20
1919.99
11
22640.0
21
2200.0
0
LINE
8
B050
10
21419.83
20
2200.0
11
22016.11
21
2200.0
0
LINE
8
B050
10
22004.12
20
1904.19
11
22004.0
21
0.0
0
LINE
8
B050
10
21419.83
20
1904.19
11
22004.12
21
1904.19
0
LINE
8
B050
10
21419.83
20
1904.19
11
21419.83
21
0.0
0
LINE
8
B057
10
24500.0
20
500.0
11
24500.0
21
0.0
0
LINE
8
B057
10
25540.0
20
500.0
11
24500.0
21
500.0
0
LINE
8
B057
10
25540.0
20
0.0
11
24500.0
21
0.0
0
LINE
8
B057
10
25540.0
20
500.0
11
25540.0
21
0.0
0
LINE
8
B058
10
28000.0
20
400.0
11
28000.0
21
0.0
0
LINE
8
B058
10
29000.0
20
400.0
11
28000.0
21
400.0
0
LINE
8
B058
10
29000.0
20
0.0
11
28000.0
21
0.0
0
LINE
8
B058
10
29000.0
20
400.0
11
29000.0
21
0.0
0
LINE
8
B059
10
31500.0
20
400.0
11
31500.0
21
0.0
0
LINE
8
B059
10
32500.0
20
400.0
11
31500.0
21
400.0
0
LINE
8
B059
10
32500.0
20
0.0
11
31500.0
21
0.0
0
LINE
8
B059
10
32500.0
20
400.0
11
32500.0
21
0.0
0
LINE
8
B060
10
35000.0
20
400.0
11
35000.0
21
0.0
0
LINE
8
B060
10
35400.0
20
400.0
11
35000.0
21
400.0
0
LINE
8
B060
10
35400.0
20
0.0
11
35000.0
21
0.0
0
LINE
8
B060
10
35400.0
20
400.0
11
35400.0
21
0.0
0
LINE
8
B061
10
38500.0
20
400.0
11
38500.0
21
0.0
0
LINE
8
B061
10
38900.0
20
400.0
11
38500.0
21
400.0
0
LINE
8
B061
10
38900.0
20
0.0
11
38500.0
21
0.0
0
LINE
8
B061
10
38900.0
20
400.0
11
38900.0
21
0.0
0
LINE
8
B062
10
42000.0
20
471.49
11
42000.0
21
8.63
0
LINE
8
B062
10
42242.68
20
405.82
11
42242.68
21
74.43
0
LINE
8
B062
10
42242.68
20
74.43
11
42796.38
21
74.43
0
LINE
8
B062
10
43040.0
20
8.63
11
42000.0
21
8.63
0
LINE
8
B062
10
43040.0
20
471.49
11
43040.0
21
8.63
0
LINE
8
B062
10
43040.0
20
471.49
11
42000.0
21
471.49
0
LINE
8
B062
10
42796.38
20
405.82
11
42242.68
21
405.82
0
LINE
8
B062
10
42796.38
20
405.82
11
42796.38
21
74.43
0
LINE
8
B062
10
43040.0
20
0.0
11
42000.0
21
0.0
0
LINE
8
B062
10
43040.0
20
8.63
11
43040.0
21
0.0
0
LINE
8
B062
10
42000.0
20
8.63
11
42000.0
21
0.0
0
LINE
8
B062
10
42000.0
20
498.21
11
42000.0
21
0.0
0
LINE
8
B062
10
42000.0
20
471.49
11
42000.0
21
498.21
0
LINE
8
B062
10
42242.68
20
405.93
11
42242.68
21
74.52
0
LINE
8
B062
10
43040.0
20
498.21
11
42000.0
21
498.21
0
LINE
8
B062
10
43040.0
20
498.21
11
43040.0
21
0.0
0
LINE
8
B062
10
42796.38
20
405.93
11
42796.38
21
74.52
0
LINE
8
B062
10
42242.68
20
405.93
11
42796.38
21
405.93
0
LINE
8
B062
10
42242.68
20
74.52
11
42796.38
21
74.52
0
LINE
8
B062
10
43040.0
20
471.49
11
43040.0
21
498.21
0
LINE
8
B062
10
42242.68
20
74.43
11
42242.68
21
74.52
0
LINE
8
B062
10
42796.38
20
74.43
11
42796.38
21
74.52
0
LINE
8
B062
10
42796.38
20
405.82
11
42796.38
21
405.93
0
LINE
8
B062
10
42242.68
20
405.82
11
42242.68
21
405.93
0
ENDSEC
0
EOF