<svg xmlns="http://www.w3.org/2000/svg" width="1190.5511811023623" height="841.8897637795277" viewBox="0 0 1190.5511811023623 841.8897637795277"><rect width="100%" height="100%" fill="white"/><line x1="22" y1="22" x2="1168.5511811023623" y2="22" stroke="#657789" stroke-width="0.65"/><line x1="1168.5511811023623" y1="22" x2="1168.5511811023623" y2="819.8897637795277" stroke="#657789" stroke-width="0.65"/><line x1="1168.5511811023623" y1="819.8897637795277" x2="22" y2="819.8897637795277" stroke="#657789" stroke-width="0.65"/><line x1="22" y1="819.8897637795277" x2="22" y2="22" stroke="#657789" stroke-width="0.65"/><text x="38" y="48" font-family="Arial" font-size="17" font-weight="700" fill="#21354a">B046 · перед</text><text x="38" y="69" font-family="Arial" font-size="9" font-weight="400" fill="#21354a">Dimensions Blender: 1072 × 2200 × 16 мм. Осі головного виду: X / Y.</text><line x1="22" y1="757.8897637795277" x2="1168.5511811023623" y2="757.8897637795277" stroke="#657789" stroke-width="0.65"/><line x1="1168.5511811023623" y1="757.8897637795277" x2="1168.5511811023623" y2="819.8897637795277" stroke="#657789" stroke-width="0.65"/><line x1="1168.5511811023623" y1="819.8897637795277" x2="22" y2="819.8897637795277" stroke="#657789" stroke-width="0.65"/><line x1="22" y1="819.8897637795277" x2="22" y2="757.8897637795277" stroke="#657789" stroke-width="0.65"/><line x1="845.5511811023623" y1="757.8897637795277" x2="845.5511811023623" y2="819.8897637795277" stroke="#354657" stroke-width="0.65"/><text x="38" y="779.8897637795277" font-family="Arial" font-size="12" font-weight="700" fill="#21354a">ФОТОБУДКА · СЛАВУТИЧ</text><text x="38" y="798.8897637795277" font-family="Arial" font-size="9" font-weight="400" fill="#21354a">Ревізія 08 · 16.09.2026 · розміри в мм · не масштабувати з екрана</text><text x="860.5511811023623" y="779.8897637795277" font-family="Arial" font-size="12" font-weight="700" fill="#21354a">B046</text><text x="860.5511811023623" y="798.8897637795277" font-family="Arial" font-size="9" font-weight="400" fill="#21354a">Перевірка перед виготовленням</text><text x="85" y="105" font-family="Arial" font-size="10" font-weight="700" fill="#21354a">ГОЛОВНИЙ ВИД · локальні осі об’єкта</text><line x1="85.0" y1="120.00001051209166" x2="85.0" y2="605.0" stroke="#354657" stroke-width="0.85"/><line x1="321.32726760501714" y1="120.00001051209166" x2="85.0" y2="120.00001051209166" stroke="#354657" stroke-width="0.85"/><line x1="321.32726760501714" y1="605.0" x2="85.0" y2="605.0" stroke="#354657" stroke-width="0.85"/><line x1="321.32726760501714" y1="120.00001051209166" x2="321.32726760501714" y2="605.0" stroke="#354657" stroke-width="0.85"/><line x1="85" y1="619.0" x2="85" y2="635.0" stroke="#354657" stroke-width="0.65"/><line x1="321.3272734917885" y1="619.0" x2="321.3272734917885" y2="635.0" stroke="#354657" stroke-width="0.65"/><line x1="85" y1="627.0" x2="321.3272734917885" y2="627.0" stroke="#354657" stroke-width="0.65"/><line x1="85" y1="627.0" x2="90" y2="625.0" stroke="#354657" stroke-width="0.65"/><line x1="321.3272734917885" y1="627.0" x2="316.3272734917885" y2="629.0" stroke="#354657" stroke-width="0.65"/><text x="188.16363674589425" y="622.0" font-family="Arial" font-size="9" font-weight="400" fill="#21354a">1072</text><text x="40" y="362.5" font-family="Arial" font-size="10" font-weight="700" fill="#21354a">2200</text><text x="89.0" y="601.0" font-family="Arial" font-size="7" font-weight="400" fill="#aa4933">1</text><text x="89.0" y="116.00001051209166" font-family="Arial" font-size="7" font-weight="400" fill="#aa4933">2</text><text x="325.32726760501714" y="601.0" font-family="Arial" font-size="7" font-weight="400" fill="#aa4933">3</text><text x="325.32726760501714" y="116.00001051209166" font-family="Arial" font-size="7" font-weight="400" fill="#aa4933">4</text><text x="85" y="651.0" font-family="Arial" font-size="8" font-weight="400" fill="#21354a">База 0;0 — нижній лівий кут. Числа біля вершин — номери таблиці.</text><text x="660" y="106" font-family="Arial" font-size="10" font-weight="700" fill="#21354a">ТОРЕЦЬ / ТОВЩИНА</text><line x1="670" y1="128" x2="733.9999955892563" y2="128" stroke="#657789" stroke-width="0.65"/><line x1="733.9999955892563" y1="128" x2="733.9999955892563" y2="298" stroke="#657789" stroke-width="0.65"/><line x1="733.9999955892563" y1="298" x2="670" y2="298" stroke="#657789" stroke-width="0.65"/><line x1="670" y1="298" x2="670" y2="128" stroke="#657789" stroke-width="0.65"/><text x="710" y="160" font-family="Arial" font-size="10" font-weight="400" fill="#21354a">16 мм</text><text x="815" y="106" font-family="Arial" font-size="10" font-weight="700" fill="#21354a">ІЗОМЕТРІЯ</text><line x1="821.0818524016445" y1="125.0" x2="821.0818524016445" y2="333.25660618299435" stroke="#354657" stroke-width="0.5"/><line x1="922.5596171972737" y1="151.09428237601895" x2="821.0818524016445" y2="125.0" stroke="#354657" stroke-width="0.5"/><line x1="921.4777647956292" y1="151.74339381700563" x2="922.5596171972737" y2="151.09428237601895" stroke="#354657" stroke-width="0.5"/><line x1="821.0818524016445" y1="333.25660618299435" x2="820.0" y2="333.905717623981" stroke="#354657" stroke-width="0.5"/><line x1="921.4777647956292" y1="360.0" x2="922.5596171972737" y2="359.35088855901336" stroke="#354657" stroke-width="0.5"/><line x1="820.0" y1="125.64911144098666" x2="821.0818524016445" y2="125.0" stroke="#354657" stroke-width="0.5"/><line x1="921.4777647956292" y1="360.0" x2="820.0" y2="333.905717623981" stroke="#354657" stroke-width="0.5"/><line x1="921.4777647956292" y1="151.74339381700563" x2="921.4777647956292" y2="360.0" stroke="#354657" stroke-width="0.5"/><line x1="821.0818524016445" y1="333.25660618299435" x2="922.5596171972737" y2="359.35088855901336" stroke="#354657" stroke-width="0.5"/><line x1="820.0" y1="333.905717623981" x2="820.0" y2="125.64911144098666" stroke="#354657" stroke-width="0.5"/><line x1="820.0" y1="125.64911144098666" x2="921.4777647956292" y2="151.74339381700563" stroke="#354657" stroke-width="0.5"/><line x1="922.5596171972737" y1="359.35088855901336" x2="922.5596171972737" y2="151.09428237601895" stroke="#354657" stroke-width="0.5"/><text x="660" y="398" font-family="Arial" font-size="10" font-weight="700" fill="#21354a">КООРДИНАТИ КОНТУРУ ВІД БАЗИ</text><text x="660" y="422" font-family="Arial" font-size="8" font-weight="400" fill="#21354a">01   U 0   V 0</text><text x="660" y="439" font-family="Arial" font-size="8" font-weight="400" fill="#21354a">02   U 0   V 2200</text><text x="660" y="456" font-family="Arial" font-size="8" font-weight="400" fill="#21354a">03   U 1072   V 0</text><text x="660" y="473" font-family="Arial" font-size="8" font-weight="400" fill="#21354a">04   U 1072   V 2200</text><text x="40" y="710" font-family="Arial" font-size="8" font-weight="400" fill="#21354a">Крайка: тип, товщину та видимі торці погодити перед розкроєм. Розміри тут — габарити автора, без віднімання крайки.</text><text x="40" y="730" font-family="Arial" font-size="8" font-weight="400" fill="#21354a">Монтажні отвори не задані у вихідній моделі. Не свердлити за довільними точками; потрібна присадка вибраної фурнітури.</text></svg>