<svg xmlns="http://www.w3.org/2000/svg" width="1190.5511811023623" height="841.8897637795277" viewBox="0 0 1190.5511811023623 841.8897637795277"><rect width="100%" height="100%" fill="white"/><line x1="22" y1="22" x2="1168.5511811023623" y2="22" stroke="#657789" stroke-width="0.65"/><line x1="1168.5511811023623" y1="22" x2="1168.5511811023623" y2="819.8897637795277" stroke="#657789" stroke-width="0.65"/><line x1="1168.5511811023623" y1="819.8897637795277" x2="22" y2="819.8897637795277" stroke="#657789" stroke-width="0.65"/><line x1="22" y1="819.8897637795277" x2="22" y2="22" stroke="#657789" stroke-width="0.65"/><text x="38" y="48" font-family="Arial" font-size="17" font-weight="700" fill="#21354a">B061 · дсп1.004</text><text x="38" y="69" font-family="Arial" font-size="9" font-weight="400" fill="#21354a">Dimensions Blender: 400 × 400 × 16 мм. Осі головного виду: X / Y.</text><line x1="22" y1="757.8897637795277" x2="1168.5511811023623" y2="757.8897637795277" stroke="#657789" stroke-width="0.65"/><line x1="1168.5511811023623" y1="757.8897637795277" x2="1168.5511811023623" y2="819.8897637795277" stroke="#657789" stroke-width="0.65"/><line x1="1168.5511811023623" y1="819.8897637795277" x2="22" y2="819.8897637795277" stroke="#657789" stroke-width="0.65"/><line x1="22" y1="819.8897637795277" x2="22" y2="757.8897637795277" stroke="#657789" stroke-width="0.65"/><line x1="845.5511811023623" y1="757.8897637795277" x2="845.5511811023623" y2="819.8897637795277" stroke="#354657" stroke-width="0.65"/><text x="38" y="779.8897637795277" font-family="Arial" font-size="12" font-weight="700" fill="#21354a">ФОТОБУДКА · СЛАВУТИЧ</text><text x="38" y="798.8897637795277" font-family="Arial" font-size="9" font-weight="400" fill="#21354a">Ревізія 08 · 16.09.2026 · розміри в мм · не масштабувати з екрана</text><text x="860.5511811023623" y="779.8897637795277" font-family="Arial" font-size="12" font-weight="700" fill="#21354a">B061</text><text x="860.5511811023623" y="798.8897637795277" font-family="Arial" font-size="9" font-weight="400" fill="#21354a">Перевірка перед виготовленням</text><text x="85" y="105" font-family="Arial" font-size="10" font-weight="700" fill="#21354a">ГОЛОВНИЙ ВИД · локальні осі об’єкта</text><line x1="85.0" y1="119.99997109174556" x2="85.0" y2="605.0" stroke="#354657" stroke-width="0.85"/><line x1="570.0000289082544" y1="119.99997109174556" x2="85.0" y2="119.99997109174556" stroke="#354657" stroke-width="0.85"/><line x1="570.0000289082544" y1="605.0" x2="85.0" y2="605.0" stroke="#354657" stroke-width="0.85"/><line x1="570.0000289082544" y1="119.99997109174556" x2="570.0000289082544" y2="605.0" stroke="#354657" stroke-width="0.85"/><line x1="85" y1="619.0" x2="85" y2="635.0" stroke="#354657" stroke-width="0.65"/><line x1="570.0" y1="619.0" x2="570.0" y2="635.0" stroke="#354657" stroke-width="0.65"/><line x1="85" y1="627.0" x2="570.0" y2="627.0" stroke="#354657" stroke-width="0.65"/><line x1="85" y1="627.0" x2="90" y2="625.0" stroke="#354657" stroke-width="0.65"/><line x1="570.0" y1="627.0" x2="565.0" y2="629.0" stroke="#354657" stroke-width="0.65"/><text x="312.5" y="622.0" font-family="Arial" font-size="9" font-weight="400" fill="#21354a">400</text><text x="40" y="362.5" font-family="Arial" font-size="10" font-weight="700" fill="#21354a">400</text><text x="89.0" y="601.0" font-family="Arial" font-size="7" font-weight="400" fill="#aa4933">1</text><text x="89.0" y="115.99997109174556" font-family="Arial" font-size="7" font-weight="400" fill="#aa4933">2</text><text x="574.0000289082544" y="601.0" font-family="Arial" font-size="7" font-weight="400" fill="#aa4933">3</text><text x="574.0000289082544" y="115.99997109174556" font-family="Arial" font-size="7" font-weight="400" fill="#aa4933">4</text><text x="85" y="651.0" font-family="Arial" font-size="8" font-weight="400" fill="#21354a">База 0;0 — нижній лівий кут. Числа біля вершин — номери таблиці.</text><text x="660" y="106" font-family="Arial" font-size="10" font-weight="700" fill="#21354a">ТОРЕЦЬ / ТОВЩИНА</text><line x1="670" y1="128" x2="734.0010014176369" y2="128" stroke="#657789" stroke-width="0.65"/><line x1="734.0010014176369" y1="128" x2="734.0010014176369" y2="298" stroke="#657789" stroke-width="0.65"/><line x1="734.0010014176369" y1="298" x2="670" y2="298" stroke="#657789" stroke-width="0.65"/><line x1="670" y1="298" x2="670" y2="128" stroke="#657789" stroke-width="0.65"/><text x="710" y="160" font-family="Arial" font-size="10" font-weight="400" fill="#21354a">16 мм</text><text x="815" y="106" font-family="Arial" font-size="10" font-weight="700" fill="#21354a">ІЗОМЕТРІЯ</text><line x1="825.2690574432569" y1="125.0" x2="825.2690819792207" y2="309.4170082444135" stroke="#354657" stroke-width="0.5"/><line x1="1009.6860286997048" y1="172.42155710561264" x2="825.2690574432569" y2="125.0" stroke="#354657" stroke-width="0.5"/><line x1="1004.416971256448" y1="175.58299157156677" x2="1009.6860286997048" y2="172.42155710561264" stroke="#354657" stroke-width="0.5"/><line x1="825.2690819792207" y1="309.4170082444135" x2="820.0000242292643" y2="312.57844289438736" stroke="#354657" stroke-width="0.5"/><line x1="1004.4169954857123" y1="360.0" x2="1009.6860535423683" y2="356.83856516600645" stroke="#354657" stroke-width="0.5"/><line x1="820.0" y1="128.16143446595413" x2="825.2690574432569" y2="125.0" stroke="#354657" stroke-width="0.5"/><line x1="1004.4169954857123" y1="360.0" x2="820.0000242292643" y2="312.57844289438736" stroke="#354657" stroke-width="0.5"/><line x1="1004.416971256448" y1="175.58299157156677" x2="1004.4169954857123" y2="360.0" stroke="#354657" stroke-width="0.5"/><line x1="825.2690819792207" y1="309.4170082444135" x2="1009.6860535423683" y2="356.83856516600645" stroke="#354657" stroke-width="0.5"/><line x1="820.0000242292643" y1="312.57844289438736" x2="820.0" y2="128.16143446595413" stroke="#354657" stroke-width="0.5"/><line x1="820.0" y1="128.16143446595413" x2="1004.416971256448" y2="175.58299157156677" stroke="#354657" stroke-width="0.5"/><line x1="1009.6860535423683" y1="356.83856516600645" x2="1009.6860286997048" y2="172.42155710561264" stroke="#354657" stroke-width="0.5"/><text x="660" y="398" font-family="Arial" font-size="10" font-weight="700" fill="#21354a">КООРДИНАТИ КОНТУРУ ВІД БАЗИ</text><text x="660" y="422" font-family="Arial" font-size="8" font-weight="400" fill="#21354a">01   U 0   V 0</text><text x="660" y="439" font-family="Arial" font-size="8" font-weight="400" fill="#21354a">02   U 0   V 400</text><text x="660" y="456" font-family="Arial" font-size="8" font-weight="400" fill="#21354a">03   U 400   V 0</text><text x="660" y="473" font-family="Arial" font-size="8" font-weight="400" fill="#21354a">04   U 400   V 400</text><text x="40" y="710" font-family="Arial" font-size="8" font-weight="400" fill="#21354a">Крайка: тип, товщину та видимі торці погодити перед розкроєм. Розміри тут — габарити автора, без віднімання крайки.</text><text x="40" y="730" font-family="Arial" font-size="8" font-weight="400" fill="#21354a">Монтажні отвори не задані у вихідній моделі. Не свердлити за довільними точками; потрібна присадка вибраної фурнітури.</text></svg>