0
SECTION
2
HEADER
9
$INSUNITS
70
4
0
ENDSEC
0
SECTION
2
ENTITIES
0
LWPOLYLINE
8
R6-007
90
4
70
1
10
0
20
0
10
984
20
0
10
984
20
2104
10
0
20
2104
0
LWPOLYLINE
8
R6-008
90
4
70
1
10
3000
20
0
10
4600
20
0
10
4600
20
2104
10
3000
20
2104
0
LWPOLYLINE
8
R6-009
90
4
70
1
10
6000
20
0
10
6984
20
0
10
6984
20
2104
10
6000
20
2104
0
LWPOLYLINE
8
R6-009_CUT
90
4
70
1
10
6180
20
20
10
6800
20
20
10
6800
20
1570
10
6180
20
1570
0
LWPOLYLINE
8
R6-010
90
4
70
1
10
9000
20
0
10
9604
20
0
10
9604
20
1940
10
9000
20
1940
0
LWPOLYLINE
8
R6-011
90
4
70
1
10
12000
20
0
10
13568
20
0
10
13568
20
164
10
12000
20
164
0
LWPOLYLINE
8
R6-012
90
4
70
1
10
15000
20
0
10
16640
20
0
10
16640
20
1040
10
15000
20
1040
0
LWPOLYLINE
8
R6-013
90
4
70
1
10
18000
20
0
10
18516
20
0
10
18516
20
1400
10
18000
20
1400
0
LWPOLYLINE
8
R6-014
90
4
70
1
10
21000
20
0
10
21008
20
0
10
21008
20
1412
10
21000
20
1412
0
LWPOLYLINE
8
R6-015
90
4
70
1
10
24000
20
0
10
24008
20
0
10
24008
20
1412
10
24000
20
1412
0
LWPOLYLINE
8
R6-016
90
4
70
1
10
27000
20
0
10
27528
20
0
10
27528
20
8
10
27000
20
8
0
LWPOLYLINE
8
R6-017
90
4
70
1
10
30000
20
0
10
30528
20
0
10
30528
20
8
10
30000
20
8
0
LWPOLYLINE
8
R6-018
90
4
70
1
10
33000
20
0
10
33020
20
0
10
33020
20
2154
10
33000
20
2154
0
LWPOLYLINE
8
R6-019
90
4
70
1
10
36000
20
0
10
36020
20
0
10
36020
20
2154
10
36000
20
2154
0
LWPOLYLINE
8
R6-020
90
4
70
1
10
39000
20
0
10
39020
20
0
10
39020
20
2154
10
39000
20
2154
0
LWPOLYLINE
8
R6-021
90
4
70
1
10
42000
20
0
10
42020
20
0
10
42020
20
2154
10
42000
20
2154
0
LWPOLYLINE
8
R6-022
90
4
70
1
10
45000
20
0
10
46518
20
0
10
46518
20
20
10
45000
20
20
0
LWPOLYLINE
8
R6-023
90
4
70
1
10
48000
20
0
10
49518
20
0
10
49518
20
20
10
48000
20
20
0
LWPOLYLINE
8
R6-024
90
4
70
1
10
51000
20
0
10
51918
20
0
10
51918
20
20
10
51000
20
20
0
LWPOLYLINE
8
R6-025
90
4
70
1
10
54000
20
0
10
54918
20
0
10
54918
20
20
10
54000
20
20
0
LWPOLYLINE
8
R6-026
90
4
70
1
10
57000
20
0
10
58518
20
0
10
58518
20
20
10
57000
20
20
0
LWPOLYLINE
8
R6-027
90
4
70
1
10
60000
20
0
10
61518
20
0
10
61518
20
20
10
60000
20
20
0
LWPOLYLINE
8
R6-028
90
4
70
1
10
63000
20
0
10
63918
20
0
10
63918
20
20
10
63000
20
20
0
LWPOLYLINE
8
R6-029
90
4
70
1
10
66000
20
0
10
66918
20
0
10
66918
20
20
10
66000
20
20
0
LWPOLYLINE
8
R6-030
90
4
70
1
10
69000
20
0
10
70518
20
0
10
70518
20
20
10
69000
20
20
0
LWPOLYLINE
8
R6-031
90
4
70
1
10
72000
20
0
10
73518
20
0
10
73518
20
20
10
72000
20
20
0
LWPOLYLINE
8
R6-032
90
4
70
1
10
75000
20
0
10
75020
20
0
10
75020
20
385
10
75000
20
385
0
LWPOLYLINE
8
R6-033
90
4
70
1
10
78000
20
0
10
78020
20
0
10
78020
20
385
10
78000
20
385
0
LWPOLYLINE
8
R6-034
90
4
70
1
10
81000
20
0
10
81020
20
0
10
81020
20
2094
10
81000
20
2094
0
LWPOLYLINE
8
R6-035
90
4
70
1
10
84000
20
0
10
84020
20
0
10
84020
20
2094
10
84000
20
2094
0
LWPOLYLINE
8
R6-036
90
4
70
1
10
87000
20
0
10
87630
20
0
10
87630
20
20
10
87000
20
20
0
LWPOLYLINE
8
R6-037
90
4
70
1
10
90000
20
0
10
90630
20
0
10
90630
20
20
10
90000
20
20
0
LWPOLYLINE
8
R6-038
90
4
70
1
10
93000
20
0
10
93114
20
0
10
93114
20
20
10
93000
20
20
0
LWPOLYLINE
8
R6-039
90
4
70
1
10
96000
20
0
10
96134
20
0
10
96134
20
20
10
96000
20
20
0
LWPOLYLINE
8
R6-040
90
4
70
1
10
99000
20
0
10
99020
20
0
10
99020
20
376
10
99000
20
376
0
LWPOLYLINE
8
R6-041
90
4
70
1
10
102000
20
0
10
102020
20
0
10
102020
20
376
10
102000
20
376
0
LWPOLYLINE
8
R6-042
90
4
70
1
10
105000
20
0
10
105020
20
0
10
105020
20
376
10
105000
20
376
0
LWPOLYLINE
8
R6-043
90
4
70
1
10
108000
20
0
10
108020
20
0
10
108020
20
376
10
108000
20
376
0
LWPOLYLINE
8
R6-044
90
4
70
1
10
111000
20
0
10
111020
20
0
10
111020
20
376
10
111000
20
376
0
LWPOLYLINE
8
R6-045
90
4
70
1
10
114000
20
0
10
114020
20
0
10
114020
20
376
10
114000
20
376
0
LWPOLYLINE
8
R6-046
90
4
70
1
10
117000
20
0
10
117870
20
0
10
117870
20
20
10
117000
20
20
0
LWPOLYLINE
8
R6-047
90
4
70
1
10
120000
20
0
10
120870
20
0
10
120870
20
20
10
120000
20
20
0
LWPOLYLINE
8
R6-048
90
4
70
1
10
123000
20
0
10
123324
20
0
10
123324
20
20
10
123000
20
20
0
LWPOLYLINE
8
R6-049
90
4
70
1
10
126000
20
0
10
126324
20
0
10
126324
20
20
10
126000
20
20
0
LWPOLYLINE
8
R6-050
90
4
70
1
10
129000
20
0
10
129324
20
0
10
129324
20
20
10
129000
20
20
0
LWPOLYLINE
8
R6-051
90
4
70
1
10
132000
20
0
10
132386
20
0
10
132386
20
872
10
132000
20
872
0
LWPOLYLINE
8
R6-052
90
4
70
1
10
135000
20
0
10
135386
20
0
10
135386
20
872
10
135000
20
872
0
LWPOLYLINE
8
R6-053
90
4
70
1
10
138000
20
0
10
138308
20
0
10
138308
20
760
10
138000
20
760
0
LWPOLYLINE
8
R6-054
90
4
70
1
10
141000
20
0
10
141760
20
0
10
141760
20
45
10
141000
20
45
0
LWPOLYLINE
8
R6-055
90
4
70
1
10
144000
20
0
10
144300
20
0
10
144300
20
350
10
144000
20
350
0
LWPOLYLINE
8
R6-056
90
4
70
1
10
147000
20
0
10
147020
20
0
10
147020
20
25
10
147000
20
25
0
LWPOLYLINE
8
R6-057
90
4
70
1
10
150000
20
0
10
150020
20
0
10
150020
20
25
10
150000
20
25
0
LWPOLYLINE
8
R6-058
90
4
70
1
10
153000
20
0
10
153020
20
0
10
153020
20
25
10
153000
20
25
0
LWPOLYLINE
8
R6-059
90
4
70
1
10
156000
20
0
10
156020
20
0
10
156020
20
25
10
156000
20
25
0
LWPOLYLINE
8
R6-060
90
4
70
1
10
159000
20
0
10
159444
20
0
10
159444
20
968
10
159000
20
968
0
LWPOLYLINE
8
R6-061
90
4
70
1
10
162000
20
0
10
162604
20
0
10
162604
20
968
10
162000
20
968
0
LWPOLYLINE
8
R6-062
90
4
70
1
10
165000
20
0
10
165968
20
0
10
165968
20
45
10
165000
20
45
0
LWPOLYLINE
8
R6-063
90
4
70
1
10
168000
20
0
10
168968
20
0
10
168968
20
380
10
168000
20
380
0
LWPOLYLINE
8
R6-063_CUT
90
4
70
1
10
168050
20
260
10
168270
20
260
10
168270
20
274
10
168050
20
274
0
LWPOLYLINE
8
R6-063_CUT
90
4
70
1
10
168050
20
310
10
168270
20
310
10
168270
20
324
10
168050
20
324
0
LWPOLYLINE
8
R6-063_CUT
90
4
70
1
10
168330
20
100
10
168520
20
100
10
168520
20
250
10
168330
20
250
0
LWPOLYLINE
8
R6-063_CUT
90
4
70
1
10
168590
20
100
10
168850
20
100
10
168850
20
250
10
168590
20
250
0
LWPOLYLINE
8
R6-064
90
4
70
1
10
171000
20
0
10
171580.09
20
0
10
171580.09
20
968
10
171000
20
968
0
LWPOLYLINE
8
R6-064_CUT
90
4
70
1
10
171215
20
216
10
171516
20
216
10
171516
20
751
10
171215
20
751
0
LWPOLYLINE
8
R6-066
90
4
70
1
10
174000
20
0
10
174429
20
0
10
174429
20
800
10
174000
20
800
0
LWPOLYLINE
8
R6-067
90
4
70
1
10
177000
20
0
10
177429
20
0
10
177429
20
800
10
177000
20
800
0
LWPOLYLINE
8
R6-068
90
4
70
1
10
180000
20
0
10
180110
20
0
10
180110
20
610
10
180000
20
610
0
LWPOLYLINE
8
R6-069
90
4
70
1
10
183000
20
0
10
183493.32
20
0
10
183493.32
20
968
10
183000
20
968
0
LWPOLYLINE
8
R6-070
90
4
70
1
10
186000
20
0
10
187084
20
0
10
187084
20
968
10
186000
20
968
0
LWPOLYLINE
8
R6-071
90
4
70
1
10
189000
20
0
10
190000
20
0
10
190000
20
10
10
189000
20
10
0
LWPOLYLINE
8
R6-072
90
4
70
1
10
192000
20
0
10
193000
20
0
10
193000
20
10
10
192000
20
10
0
LWPOLYLINE
8
R6-073
90
4
70
1
10
195000
20
0
10
196000
20
0
10
196000
20
10
10
195000
20
10
0
LWPOLYLINE
8
R6-074
90
4
70
1
10
198000
20
0
10
199000
20
0
10
199000
20
10
10
198000
20
10
0
LWPOLYLINE
8
R6-075
90
4
70
1
10
201000
20
0
10
202000
20
0
10
202000
20
10
10
201000
20
10
0
LWPOLYLINE
8
R6-076
90
4
70
1
10
204000
20
0
10
204614
20
0
10
204614
20
1544
10
204000
20
1544
0
LWPOLYLINE
8
R6-076_CUT
90
4
70
1
10
204350
20
35
10
204500
20
35
10
204500
20
145
10
204350
20
145
0
LWPOLYLINE
8
R6-076_CUT
90
4
70
1
10
204350
20
1150
10
204500
20
1150
10
204500
20
1260
10
204350
20
1260
0
LWPOLYLINE
8
R6-077
90
4
70
1
10
207000
20
0
10
207024
20
0
10
207024
20
55
10
207000
20
55
0
LWPOLYLINE
8
R6-078
90
4
70
1
10
210000
20
0
10
210024
20
0
10
210024
20
55
10
210000
20
55
0
LWPOLYLINE
8
R6-079
90
4
70
1
10
213000
20
0
10
213024
20
0
10
213024
20
55
10
213000
20
55
0
LWPOLYLINE
8
R6-080
90
4
70
1
10
216000
20
0
10
216020
20
0
10
216020
20
20
10
216000
20
20
0
LWPOLYLINE
8
R6-081
90
4
70
1
10
219000
20
0
10
219351
20
0
10
219351
20
322
10
219000
20
322
0
LWPOLYLINE
8
R6-082
90
4
70
1
10
222000
20
0
10
222160
20
0
10
222160
20
180
10
222000
20
180
0
LWPOLYLINE
8
R6-083
90
4
70
1
10
225000
20
0
10
225160
20
0
10
225160
20
30
10
225000
20
30
0
LWPOLYLINE
8
R6-084
90
4
70
1
10
228000
20
0
10
228250
20
0
10
228250
20
200
10
228000
20
200
0
LWPOLYLINE
8
R6-085
90
4
70
1
10
231000
20
0
10
231160
20
0
10
231160
20
740
10
231000
20
740
0
LWPOLYLINE
8
R6-086
90
4
70
1
10
234000
20
0
10
234045
20
0
10
234045
20
620
10
234000
20
620
0
LWPOLYLINE
8
R6-087
90
4
70
1
10
237000
20
0
10
237030
20
0
10
237030
20
500
10
237000
20
500
0
LWPOLYLINE
8
R6-088
90
4
70
1
10
240000
20
0
10
240076
20
0
10
240076
20
57
10
240000
20
57
0
LWPOLYLINE
8
R6-089
90
4
70
1
10
243000
20
0
10
243085.5
20
0
10
243085.5
20
116.3
10
243000
20
116.3
0
LWPOLYLINE
8
R6-092
90
4
70
1
10
246000
20
0
10
246103
20
0
10
246103
20
106
10
246000
20
106
0
LWPOLYLINE
8
R6-093
90
4
70
1
10
249000
20
0
10
249040
20
0
10
249040
20
42
10
249000
20
42
0
LWPOLYLINE
8
R6-095
90
4
70
1
10
252000
20
0
10
252214
20
0
10
252214
20
150
10
252000
20
150
0
LWPOLYLINE
8
R6-096
90
4
70
1
10
255000
20
0
10
255016
20
0
10
255016
20
150
10
255000
20
150
0
LWPOLYLINE
8
R6-097
90
4
70
1
10
258000
20
0
10
258016
20
0
10
258016
20
150
10
258000
20
150
0
LWPOLYLINE
8
R6-098
90
4
70
1
10
261000
20
0
10
261016
20
0
10
261016
20
150
10
261000
20
150
0
LWPOLYLINE
8
R6-099
90
4
70
1
10
264000
20
0
10
264016
20
0
10
264016
20
150
10
264000
20
150
0
LWPOLYLINE
8
R6-100
90
4
70
1
10
267000
20
0
10
267016
20
0
10
267016
20
150
10
267000
20
150
0
LWPOLYLINE
8
R6-101
90
4
70
1
10
270000
20
0
10
270016
20
0
10
270016
20
150
10
270000
20
150
0
LWPOLYLINE
8
R6-102
90
4
70
1
10
273000
20
0
10
273016
20
0
10
273016
20
150
10
273000
20
150
0
LWPOLYLINE
8
R6-103
90
4
70
1
10
276000
20
0
10
276016
20
0
10
276016
20
150
10
276000
20
150
0
LWPOLYLINE
8
R6-104
90
4
70
1
10
279000
20
0
10
279016
20
0
10
279016
20
150
10
279000
20
150
0
LWPOLYLINE
8
R6-105
90
4
70
1
10
282000
20
0
10
282016
20
0
10
282016
20
150
10
282000
20
150
0
LWPOLYLINE
8
R6-106
90
4
70
1
10
285000
20
0
10
285016
20
0
10
285016
20
150
10
285000
20
150
0
LWPOLYLINE
8
R6-107
90
4
70
1
10
288000
20
0
10
288016
20
0
10
288016
20
150
10
288000
20
150
0
LWPOLYLINE
8
R6-108
90
4
70
1
10
291000
20
0
10
291016
20
0
10
291016
20
150
10
291000
20
150
0
LWPOLYLINE
8
R6-109
90
4
70
1
10
294000
20
0
10
294016
20
0
10
294016
20
150
10
294000
20
150
0
LWPOLYLINE
8
R6-110
90
4
70
1
10
297000
20
0
10
297020
20
0
10
297020
20
2154
10
297000
20
2154
0
LWPOLYLINE
8
R6-111
90
4
70
1
10
300000
20
0
10
300020
20
0
10
300020
20
2154
10
300000
20
2154
0
LWPOLYLINE
8
R6-112
90
4
70
1
10
303000
20
0
10
303020
20
0
10
303020
20
2154
10
303000
20
2154
0
LWPOLYLINE
8
R6-113
90
4
70
1
10
306000
20
0
10
306020
20
0
10
306020
20
2154
10
306000
20
2154
0
LWPOLYLINE
8
R6-114
90
4
70
1
10
309000
20
0
10
309020
20
0
10
309020
20
2154
10
309000
20
2154
0
LWPOLYLINE
8
R6-115
90
4
70
1
10
312000
20
0
10
312020
20
0
10
312020
20
2154
10
312000
20
2154
0
LWPOLYLINE
8
R6-116
90
4
70
1
10
315000
20
0
10
315020
20
0
10
315020
20
2154
10
315000
20
2154
0
LWPOLYLINE
8
R6-117
90
4
70
1
10
318000
20
0
10
318020
20
0
10
318020
20
2154
10
318000
20
2154
0
LWPOLYLINE
8
R6-126
90
4
70
1
10
321000
20
0
10
321520
20
0
10
321520
20
968
10
321000
20
968
0
LWPOLYLINE
8
R6-127
90
4
70
1
10
324000
20
0
10
324520
20
0
10
324520
20
968
10
324000
20
968
0
LWPOLYLINE
8
R6-128
90
4
70
1
10
327000
20
0
10
327580.09
20
0
10
327580.09
20
20
10
327000
20
20
0
LWPOLYLINE
8
R6-129
90
4
70
1
10
330000
20
0
10
330580.09
20
0
10
330580.09
20
20
10
330000
20
20
0
LWPOLYLINE
8
R6-130
90
4
70
1
10
333000
20
0
10
333110
20
0
10
333110
20
175
10
333000
20
175
0
LWPOLYLINE
8
R6-131
90
4
70
1
10
336000
20
0
10
336036
20
0
10
336036
20
34
10
336000
20
34
0
LWPOLYLINE
8
R6-132
90
4
70
1
10
339000
20
0
10
339388
20
0
10
339388
20
373
10
339000
20
373
0
LWPOLYLINE
8
R6-133
90
4
70
1
10
342000
20
0
10
342068
20
0
10
342068
20
33
10
342000
20
33
0
LWPOLYLINE
8
R6-134
90
4
70
1
10
345000
20
0
10
345024
20
0
10
345024
20
18
10
345000
20
18
0
LWPOLYLINE
8
R6-135
90
4
70
1
10
348000
20
0
10
348020
20
0
10
348020
20
1975
10
348000
20
1975
0
LWPOLYLINE
8
R6-136
90
4
70
1
10
351000
20
0
10
351020
20
0
10
351020
20
1975
10
351000
20
1975
0
LWPOLYLINE
8
R6-137
90
4
70
1
10
354000
20
0
10
354020
20
0
10
354020
20
1975
10
354000
20
1975
0
LWPOLYLINE
8
R6-138
90
4
70
1
10
357000
20
0
10
357020
20
0
10
357020
20
1975
10
357000
20
1975
0
LWPOLYLINE
8
R6-139
90
4
70
1
10
360000
20
0
10
360197
20
0
10
360197
20
20
10
360000
20
20
0
LWPOLYLINE
8
R6-140
90
4
70
1
10
363000
20
0
10
363197
20
0
10
363197
20
20
10
363000
20
20
0
LWPOLYLINE
8
R6-141
90
4
70
1
10
366000
20
0
10
366898
20
0
10
366898
20
20
10
366000
20
20
0
LWPOLYLINE
8
R6-142
90
4
70
1
10
369000
20
0
10
369898
20
0
10
369898
20
20
10
369000
20
20
0
LWPOLYLINE
8
R6-143
90
4
70
1
10
372000
20
0
10
372197
20
0
10
372197
20
20
10
372000
20
20
0
LWPOLYLINE
8
R6-144
90
4
70
1
10
375000
20
0
10
375197
20
0
10
375197
20
20
10
375000
20
20
0
LWPOLYLINE
8
R6-145
90
4
70
1
10
378000
20
0
10
378898
20
0
10
378898
20
20
10
378000
20
20
0
LWPOLYLINE
8
R6-146
90
4
70
1
10
381000
20
0
10
381898
20
0
10
381898
20
20
10
381000
20
20
0
LWPOLYLINE
8
R6-147
90
4
70
1
10
384000
20
0
10
384197
20
0
10
384197
20
20
10
384000
20
20
0
LWPOLYLINE
8
R6-148
90
4
70
1
10
387000
20
0
10
387197
20
0
10
387197
20
20
10
387000
20
20
0
LWPOLYLINE
8
R6-149
90
4
70
1
10
390000
20
0
10
390898
20
0
10
390898
20
20
10
390000
20
20
0
LWPOLYLINE
8
R6-150
90
4
70
1
10
393000
20
0
10
393898
20
0
10
393898
20
20
10
393000
20
20
0
LWPOLYLINE
8
R6-151
90
4
70
1
10
396000
20
0
10
396600
20
0
10
396600
20
740
10
396000
20
740
0
LWPOLYLINE
8
R6-152
90
4
70
1
10
399000
20
0
10
399020
20
0
10
399020
20
810
10
399000
20
810
0
LWPOLYLINE
8
R6-153
90
4
70
1
10
402000
20
0
10
402020
20
0
10
402020
20
810
10
402000
20
810
0
LWPOLYLINE
8
R6-154
90
4
70
1
10
405000
20
0
10
405213
20
0
10
405213
20
20
10
405000
20
20
0
LWPOLYLINE
8
R6-155
90
4
70
1
10
408000
20
0
10
408213
20
0
10
408213
20
20
10
408000
20
20
0
LWPOLYLINE
8
R6-156
90
4
70
1
10
411000
20
0
10
411213
20
0
10
411213
20
20
10
411000
20
20
0
LWPOLYLINE
8
R6-157
90
4
70
1
10
414000
20
0
10
414213
20
0
10
414213
20
20
10
414000
20
20
0
LWPOLYLINE
8
R6-158
90
4
70
1
10
417000
20
0
10
417027
20
0
10
417027
20
800
10
417000
20
800
0
LWPOLYLINE
8
R6-159
90
4
70
1
10
420000
20
0
10
420027
20
0
10
420027
20
800
10
420000
20
800
0
LWPOLYLINE
8
R6-160
90
4
70
1
10
423000
20
0
10
423027
20
0
10
423027
20
800
10
423000
20
800
0
LWPOLYLINE
8
R6-161
90
4
70
1
10
426000
20
0
10
426027
20
0
10
426027
20
800
10
426000
20
800
0
LWPOLYLINE
8
R6-162
90
4
70
1
10
429000
20
0
10
429027
20
0
10
429027
20
800
10
429000
20
800
0
LWPOLYLINE
8
R6-163
90
4
70
1
10
432000
20
0
10
432027
20
0
10
432027
20
800
10
432000
20
800
0
LWPOLYLINE
8
R6-164
90
4
70
1
10
435000
20
0
10
435027
20
0
10
435027
20
800
10
435000
20
800
0
LWPOLYLINE
8
R6-165
90
4
70
1
10
438000
20
0
10
438027
20
0
10
438027
20
800
10
438000
20
800
0
LWPOLYLINE
8
R6-166
90
4
70
1
10
441000
20
0
10
441027
20
0
10
441027
20
610
10
441000
20
610
0
LWPOLYLINE
8
R6-167
90
4
70
1
10
444000
20
0
10
444027
20
0
10
444027
20
610
10
444000
20
610
0
LWPOLYLINE
8
R6-168
90
4
70
1
10
447000
20
0
10
447027
20
0
10
447027
20
610
10
447000
20
610
0
LWPOLYLINE
8
R6-169
90
4
70
1
10
450000
20
0
10
450027
20
0
10
450027
20
610
10
450000
20
610
0
LWPOLYLINE
8
R6-170
90
4
70
1
10
453000
20
0
10
453027
20
0
10
453027
20
175
10
453000
20
175
0
LWPOLYLINE
8
R6-171
90
4
70
1
10
456000
20
0
10
456027
20
0
10
456027
20
175
10
456000
20
175
0
LWPOLYLINE
8
R6-172
90
4
70
1
10
459000
20
0
10
459027
20
0
10
459027
20
175
10
459000
20
175
0
LWPOLYLINE
8
R6-173
90
4
70
1
10
462000
20
0
10
462027
20
0
10
462027
20
175
10
462000
20
175
0
LWPOLYLINE
8
R6-174
90
4
70
1
10
465000
20
0
10
466084
20
0
10
466084
20
20
10
465000
20
20
0
LWPOLYLINE
8
R6-175
90
4
70
1
10
468000
20
0
10
469084
20
0
10
469084
20
20
10
468000
20
20
0
LWPOLYLINE
8
R6-176
90
4
70
1
10
471000
20
0
10
471020
20
0
10
471020
20
928
10
471000
20
928
0
LWPOLYLINE
8
R6-177
90
4
70
1
10
474000
20
0
10
474020
20
0
10
474020
20
928
10
474000
20
928
0
LWPOLYLINE
8
R6-178
90
4
70
1
10
477000
20
0
10
477493.32
20
0
10
477493.32
20
20
10
477000
20
20
0
LWPOLYLINE
8
R6-179
90
4
70
1
10
480000
20
0
10
480493.32
20
0
10
480493.32
20
20
10
480000
20
20
0
LWPOLYLINE
8
R6-180
90
4
70
1
10
483000
20
0
10
483493.32
20
0
10
483493.32
20
14
10
483000
20
14
0
LWPOLYLINE
8
R6-181
90
4
70
1
10
486000
20
0
10
486493.32
20
0
10
486493.32
20
14
10
486000
20
14
0
LWPOLYLINE
8
R6-182
90
4
70
1
10
489000
20
0
10
489493.32
20
0
10
489493.32
20
14
10
489000
20
14
0
LWPOLYLINE
8
R6-183
90
4
70
1
10
492000
20
0
10
492236
20
0
10
492236
20
374
10
492000
20
374
0
LWPOLYLINE
8
R6-184
90
4
70
1
10
495000
20
0
10
495060
20
0
10
495060
20
1600
10
495000
20
1600
0
LWPOLYLINE
8
R6-185
90
4
70
1
10
498000
20
0
10
498025
20
0
10
498025
20
120
10
498000
20
120
0
LWPOLYLINE
8
R6-186
90
4
70
1
10
501000
20
0
10
501200
20
0
10
501200
20
20
10
501000
20
20
0
LWPOLYLINE
8
R6-187
90
4
70
1
10
504000
20
0
10
504900
20
0
10
504900
20
20
10
504000
20
20
0
LWPOLYLINE
8
R6-188
90
4
70
1
10
507000
20
0
10
507020
20
0
10
507020
20
80
10
507000
20
80
0
LWPOLYLINE
8
R6-189
90
4
70
1
10
510000
20
0
10
510150
20
0
10
510150
20
20
10
510000
20
20
0
LWPOLYLINE
8
R6-190
90
4
70
1
10
513000
20
0
10
513371
20
0
10
513371
20
352
10
513000
20
352
0
LWPOLYLINE
8
R6-191
90
4
70
1
10
516000
20
0
10
516371
20
0
10
516371
20
35
10
516000
20
35
0
LWPOLYLINE
8
R6-192
90
4
70
1
10
519000
20
0
10
519391
20
0
10
519391
20
40
10
519000
20
40
0
LWPOLYLINE
8
R6-193
90
4
70
1
10
522000
20
0
10
522020
20
0
10
522020
20
280
10
522000
20
280
0
LWPOLYLINE
8
R6-194
90
4
70
1
10
525000
20
0
10
525371
20
0
10
525371
20
35
10
525000
20
35
0
LWPOLYLINE
8
R6-195
90
4
70
1
10
528000
20
0
10
528391
20
0
10
528391
20
40
10
528000
20
40
0
LWPOLYLINE
8
R6-196
90
4
70
1
10
531000
20
0
10
531020
20
0
10
531020
20
280
10
531000
20
280
0
LWPOLYLINE
8
R6-197
90
4
70
1
10
534000
20
0
10
534428
20
0
10
534428
20
403
10
534000
20
403
0
LWPOLYLINE
8
R6-198
90
4
70
1
10
537000
20
0
10
537428
20
0
10
537428
20
35
10
537000
20
35
0
LWPOLYLINE
8
R6-199
90
4
70
1
10
540000
20
0
10
540448
20
0
10
540448
20
40
10
540000
20
40
0
LWPOLYLINE
8
R6-200
90
4
70
1
10
543000
20
0
10
543020
20
0
10
543020
20
20
10
543000
20
20
0
LWPOLYLINE
8
R6-201
90
4
70
1
10
546000
20
0
10
546428
20
0
10
546428
20
35
10
546000
20
35
0
LWPOLYLINE
8
R6-202
90
4
70
1
10
549000
20
0
10
549448
20
0
10
549448
20
40
10
549000
20
40
0
LWPOLYLINE
8
R6-203
90
4
70
1
10
552000
20
0
10
552020
20
0
10
552020
20
20
10
552000
20
20
0
LWPOLYLINE
8
R6-204
90
4
70
1
10
555000
20
0
10
555297
20
0
10
555297
20
30
10
555000
20
30
0
LWPOLYLINE
8
R6-205
90
4
70
1
10
558000
20
0
10
558297
20
0
10
558297
20
30
10
558000
20
30
0
LWPOLYLINE
8
R6-206
90
4
70
1
10
561000
20
0
10
561240
20
0
10
561240
20
220
10
561000
20
220
0
LWPOLYLINE
8
R6-207
90
4
70
1
10
564000
20
0
10
564493.32
20
0
10
564493.32
20
20
10
564000
20
20
0
LWPOLYLINE
8
R6-208
90
4
70
1
10
567000
20
0
10
567493.32
20
0
10
567493.32
20
20
10
567000
20
20
0
LWPOLYLINE
8
R6-209
90
4
70
1
10
570000
20
0
10
570928
20
0
10
570928
20
20
10
570000
20
20
0
LWPOLYLINE
8
R6-210
90
4
70
1
10
573000
20
0
10
573928
20
0
10
573928
20
20
10
573000
20
20
0
LWPOLYLINE
8
R6-211
90
4
70
1
10
576000
20
0
10
576030
20
0
10
576030
20
1548
10
576000
20
1548
0
LWPOLYLINE
8
R6-212
90
4
70
1
10
579000
20
0
10
579030
20
0
10
579030
20
1548
10
579000
20
1548
0
LWPOLYLINE
8
R6-213
90
4
70
1
10
582000
20
0
10
582580
20
0
10
582580
20
30
10
582000
20
30
0
LWPOLYLINE
8
R6-214
90
4
70
1
10
585000
20
0
10
585580
20
0
10
585580
20
30
10
585000
20
30
0
LWPOLYLINE
8
R6-215
90
4
70
1
10
588000
20
0
10
588124
20
0
10
588124
20
320
10
588000
20
320
0
LWPOLYLINE
8
R6-216
90
4
70
1
10
591000
20
0
10
591110
20
0
10
591110
20
310
10
591000
20
310
0
LWPOLYLINE
8
R6-217
90
4
70
1
10
594000
20
0
10
594082
20
0
10
594082
20
220
10
594000
20
220
0
LWPOLYLINE
8
R6-218
90
4
70
1
10
597000
20
0
10
597082
20
0
10
597082
20
220
10
597000
20
220
0
LWPOLYLINE
8
R6-219
90
4
70
1
10
600000
20
0
10
600190
20
0
10
600190
20
150
10
600000
20
150
0
LWPOLYLINE
8
R6-220
90
4
70
1
10
603000
20
0
10
603124
20
0
10
603124
20
190
10
603000
20
190
0
LWPOLYLINE
8
R6-221
90
4
70
1
10
606000
20
0
10
606190
20
0
10
606190
20
270
10
606000
20
270
0
LWPOLYLINE
8
R6-222
90
4
70
1
10
609000
20
0
10
609124
20
0
10
609124
20
270
10
609000
20
270
0
LWPOLYLINE
8
R6-223
90
4
70
1
10
612000
20
0
10
612124
20
0
10
612124
20
270
10
612000
20
270
0
LWPOLYLINE
8
R6-224
90
4
70
1
10
615000
20
0
10
615124
20
0
10
615124
20
190
10
615000
20
190
0
LWPOLYLINE
8
R6-225
90
4
70
1
10
618000
20
0
10
618260
20
0
10
618260
20
150
10
618000
20
150
0
LWPOLYLINE
8
R6-226
90
4
70
1
10
621000
20
0
10
621124
20
0
10
621124
20
260
10
621000
20
260
0
LWPOLYLINE
8
R6-227
90
4
70
1
10
624000
20
0
10
624260
20
0
10
624260
20
270
10
624000
20
270
0
LWPOLYLINE
8
R6-228
90
4
70
1
10
627000
20
0
10
627124
20
0
10
627124
20
270
10
627000
20
270
0
LWPOLYLINE
8
R6-229
90
4
70
1
10
630000
20
0
10
630124
20
0
10
630124
20
270
10
630000
20
270
0
LWPOLYLINE
8
R6-230
90
4
70
1
10
633000
20
0
10
633124
20
0
10
633124
20
260
10
633000
20
260
0
LWPOLYLINE
8
R6-231
90
4
70
1
10
636000
20
0
10
636210.24
20
0
10
636210.24
20
170
10
636000
20
170
0
LWPOLYLINE
8
R6-232
90
4
70
1
10
639000
20
0
10
639170
20
0
10
639170
20
65
10
639000
20
65
0
LWPOLYLINE
8
R6-233
90
4
70
1
10
642000
20
0
10
642080.72
20
0
10
642080.72
20
230
10
642000
20
230
0
LWPOLYLINE
8
R6-234
90
4
70
1
10
645000
20
0
10
645230
20
0
10
645230
20
35
10
645000
20
35
0
LWPOLYLINE
8
R6-235
90
4
70
1
10
648000
20
0
10
648020
20
0
10
648020
20
28
10
648000
20
28
0
LWPOLYLINE
8
R6-236
90
4
70
1
10
651000
20
0
10
651020
20
0
10
651020
20
28
10
651000
20
28
0
LWPOLYLINE
8
R6-237
90
4
70
1
10
654000
20
0
10
654020
20
0
10
654020
20
28
10
654000
20
28
0
LWPOLYLINE
8
R6-238
90
4
70
1
10
657000
20
0
10
657020
20
0
10
657020
20
28
10
657000
20
28
0
LWPOLYLINE
8
R6-239
90
4
70
1
10
660000
20
0
10
660020
20
0
10
660020
20
28
10
660000
20
28
0
LWPOLYLINE
8
R6-240
90
4
70
1
10
663000
20
0
10
663020
20
0
10
663020
20
28
10
663000
20
28
0
LWPOLYLINE
8
R6-241
90
4
70
1
10
666000
20
0
10
666020
20
0
10
666020
20
28
10
666000
20
28
0
LWPOLYLINE
8
R6-242
90
4
70
1
10
669000
20
0
10
669020
20
0
10
669020
20
28
10
669000
20
28
0
LWPOLYLINE
8
R6-243
90
4
70
1
10
672000
20
0
10
672020
20
0
10
672020
20
28
10
672000
20
28
0
LWPOLYLINE
8
R6-244
90
4
70
1
10
675000
20
0
10
675020
20
0
10
675020
20
28
10
675000
20
28
0
LWPOLYLINE
8
R6-245
90
4
70
1
10
678000
20
0
10
678020
20
0
10
678020
20
28
10
678000
20
28
0
LWPOLYLINE
8
R6-246
90
4
70
1
10
681000
20
0
10
681020
20
0
10
681020
20
28
10
681000
20
28
0
LWPOLYLINE
8
R6-247
90
4
70
1
10
684000
20
0
10
684020
20
0
10
684020
20
28
10
684000
20
28
0
LWPOLYLINE
8
R6-248
90
4
70
1
10
687000
20
0
10
687020
20
0
10
687020
20
28
10
687000
20
28
0
LWPOLYLINE
8
R6-249
90
4
70
1
10
690000
20
0
10
690020
20
0
10
690020
20
28
10
690000
20
28
0
LWPOLYLINE
8
R6-250
90
4
70
1
10
693000
20
0
10
693020
20
0
10
693020
20
28
10
693000
20
28
0
LWPOLYLINE
8
R6-251
90
4
70
1
10
696000
20
0
10
696020
20
0
10
696020
20
28
10
696000
20
28
0
LWPOLYLINE
8
R6-252
90
4
70
1
10
699000
20
0
10
699020
20
0
10
699020
20
28
10
699000
20
28
0
LWPOLYLINE
8
R6-253
90
4
70
1
10
702000
20
0
10
702020
20
0
10
702020
20
28
10
702000
20
28
0
LWPOLYLINE
8
R6-254
90
4
70
1
10
705000
20
0
10
705020
20
0
10
705020
20
28
10
705000
20
28
0
LWPOLYLINE
8
R6-255
90
4
70
1
10
708000
20
0
10
708020
20
0
10
708020
20
28
10
708000
20
28
0
LWPOLYLINE
8
R6-256
90
4
70
1
10
711000
20
0
10
711020
20
0
10
711020
20
28
10
711000
20
28
0
LWPOLYLINE
8
R6-257
90
4
70
1
10
714000
20
0
10
714020
20
0
10
714020
20
28
10
714000
20
28
0
LWPOLYLINE
8
R6-258
90
4
70
1
10
717000
20
0
10
717020
20
0
10
717020
20
28
10
717000
20
28
0
LWPOLYLINE
8
R6-259
90
4
70
1
10
720000
20
0
10
720034
20
0
10
720034
20
80
10
720000
20
80
0
LWPOLYLINE
8
R6-260
90
4
70
1
10
723000
20
0
10
723034
20
0
10
723034
20
80
10
723000
20
80
0
LWPOLYLINE
8
R6-261
90
4
70
1
10
726000
20
0
10
726034
20
0
10
726034
20
80
10
726000
20
80
0
LWPOLYLINE
8
R6-262
90
4
70
1
10
729000
20
0
10
729034
20
0
10
729034
20
80
10
729000
20
80
0
LWPOLYLINE
8
R6-263
90
4
70
1
10
732000
20
0
10
732034
20
0
10
732034
20
80
10
732000
20
80
0
LWPOLYLINE
8
R6-264
90
4
70
1
10
735000
20
0
10
735034
20
0
10
735034
20
80
10
735000
20
80
0
LWPOLYLINE
8
R6-265
90
4
70
1
10
738000
20
0
10
738034
20
0
10
738034
20
80
10
738000
20
80
0
LWPOLYLINE
8
R6-266
90
4
70
1
10
741000
20
0
10
741034
20
0
10
741034
20
80
10
741000
20
80
0
LWPOLYLINE
8
R6-267
90
4
70
1
10
744000
20
0
10
744034
20
0
10
744034
20
80
10
744000
20
80
0
LWPOLYLINE
8
R6-268
90
4
70
1
10
747000
20
0
10
747034
20
0
10
747034
20
80
10
747000
20
80
0
LWPOLYLINE
8
R6-269
90
4
70
1
10
750000
20
0
10
750034
20
0
10
750034
20
80
10
750000
20
80
0
LWPOLYLINE
8
R6-270
90
4
70
1
10
753000
20
0
10
753034
20
0
10
753034
20
80
10
753000
20
80
0
ENDSEC
0
EOF
